<svg width="130" height="120" xmlns="http://www.w3.org/2000/svg" style="margin: auto;" class="el-tooltip" color-interpolation-filters="sRGB" preserveAspectRatio="xMidYMid meet" version="1.0">
 <g>
  <title>background</title>
  <rect fill="none" id="canvas_background" height="122" width="132" y="-1" x="-1"/>
 </g>
 <g>
  <title>Layer 1</title>
  <rect stroke="null" id="svg_9" fill="#fff" height="123.999998" width="134.000002" y="0" x="0"/>
  <rect stroke="null" x="0" y="0" id="svg_10" class="watermarklayer" fill="url(#watermark)" height="121.30779" width="130.53852"/>
  <g stroke="null" id="svg_11" class="iconsvg" fill="#46bc99">
   <g stroke="null" id="svg_12" class="iconsvg-imagesvg">
    <rect stroke="null" id="svg_13" height="100" width="100" y="11.487181" x="14.998728" fill-opacity="0" fill="#46bc99"/>
    <g y="12" x="17.050003" stroke="null" id="svg_4">
     <svg stroke="null" id="svg_14" class="imagesvg-svg" height="100" width="100" y="11.487181" x="14.998728">
      <g stroke="null" id="svg_8">
       <svg stroke="null" id="svg_15" viewBox="0 0 72.04 72.04" xmlns="http://www.w3.org/2000/svg">
        <defs stroke="null">
         <linearGradient stroke="null" y2="0.494306" x2="0.177485" y1="0.514861" x1="0.947262" id="svg_7">
          <stop stroke="null" stop-color="#ffa000" offset="0"/>
          <stop stroke="null" stop-color="#ffc107" offset="1"/>
         </linearGradient>
         <linearGradient stroke="null" y2="0.268293" x2="0.557462" y1="0.499579" x1="0.500413" id="svg_6">
          <stop stroke="null" stop-color="#455a64" offset="0"/>
          <stop stroke="null" stop-color="#2bb656" offset="1"/>
         </linearGradient>
         <linearGradient stroke="null" y2="0.459895" x2="0.357143" y1="0.255269" x1="0.207885" id="svg_5">
          <stop stroke="null" stop-color="#757575" offset="0"/>
          <stop stroke="null" stop-color="#9e9e9e" offset="1"/>
         </linearGradient>
        </defs>
        <g stroke="null" id="svg_16">
         <g stroke="null" id="svg_17">
          <path stroke="null" id="svg_18" fill="url(#svg_7)" d="m9.43,18l8.86,-18l-12.71,0a5.58,5.58 0 0 0 -5.58,5.58l0,60.88a5.58,5.58 0 0 0 5.58,5.54l11.92,0l-7.71,-3.75l19.79,-40.31l-20.15,-9.94z"/>
          <path stroke="null" id="svg_19" fill="url(#svg_6)" d="m66.46,0l-42.84,0l48.38,23.78l0,-18.2a5.58,5.58 0 0 0 -5.54,-5.58z"/>
          <path stroke="null" id="svg_20" fill="url(#svg_5)" d="m32.94,72l33.52,0a5.58,5.58 0 0 0 5.54,-5.54l0,-17.94l-22.26,-10.68l-16.8,34.16z"/>
         </g>
        </g>
       </svg>
      </g>
     </svg>
    </g>
    <!---->
   </g>
  </g>
 </g>
</svg>